<mxfile host="app.diagrams.net" modified="2022-04-06T08:09:45.435Z" agent="5.0 (Windows NT 10.0; Win64; x64) AppleWebKit/537.36 (KHTML, like Gecko) Chrome/99.0.4844.74 Safari/537.36 Edg/99.0.1150.46" etag="2b6IyImccrWSNSl40_La" version="17.4.0" type="github">
  <diagram id="Sk8-EE8Bnr3VoEKL0z6E" name="第 1 页">
    <mxGraphModel dx="1943" dy="792" grid="1" gridSize="10" guides="1" tooltips="1" connect="1" arrows="1" fold="1" page="1" pageScale="1" pageWidth="827" pageHeight="1169" math="0" shadow="0">
      <root>
        <mxCell id="0" />
        <mxCell id="1" parent="0" />
        <mxCell id="9YjwUA9C0ADYRmNTyqfI-2" value="&lt;span style=&quot;color: rgb(50 , 50 , 50) ; font-size: 13px ; background-color: rgba(255 , 255 , 255 , 0.01)&quot;&gt;系统: 学生学籍信息系统&lt;/span&gt;&lt;div style=&quot;resize: none ; outline: none ; font-size: 13px ; color: rgb(50 , 50 , 50)&quot;&gt;表:&amp;nbsp; &amp;nbsp; &amp;nbsp;学生表,&amp;nbsp; 班级表,&amp;nbsp; 专业表,&amp;nbsp; 系部表&lt;/div&gt;" style="text;html=1;align=left;verticalAlign=middle;resizable=0;points=[];autosize=1;strokeColor=none;fillColor=none;" vertex="1" parent="1">
          <mxGeometry y="50" width="270" height="30" as="geometry" />
        </mxCell>
        <mxCell id="9YjwUA9C0ADYRmNTyqfI-3" value="&lt;u&gt;学号&lt;/u&gt;" style="ellipse;whiteSpace=wrap;html=1;" vertex="1" parent="1">
          <mxGeometry x="-10" y="280" width="100" height="40" as="geometry" />
        </mxCell>
        <mxCell id="9YjwUA9C0ADYRmNTyqfI-4" value="性别" style="ellipse;whiteSpace=wrap;html=1;" vertex="1" parent="1">
          <mxGeometry x="250" y="200" width="100" height="40" as="geometry" />
        </mxCell>
        <mxCell id="9YjwUA9C0ADYRmNTyqfI-5" value="出生年月" style="ellipse;whiteSpace=wrap;html=1;" vertex="1" parent="1">
          <mxGeometry x="150" y="190" width="100" height="40" as="geometry" />
        </mxCell>
        <mxCell id="9YjwUA9C0ADYRmNTyqfI-6" value="入学时间" style="ellipse;whiteSpace=wrap;html=1;" vertex="1" parent="1">
          <mxGeometry x="50" y="160" width="100" height="40" as="geometry" />
        </mxCell>
        <mxCell id="9YjwUA9C0ADYRmNTyqfI-8" value="班级" style="rounded=0;whiteSpace=wrap;html=1;" vertex="1" parent="1">
          <mxGeometry x="540" y="270" width="110" height="40" as="geometry" />
        </mxCell>
        <mxCell id="9YjwUA9C0ADYRmNTyqfI-9" value="学生" style="rounded=0;whiteSpace=wrap;html=1;" vertex="1" parent="1">
          <mxGeometry x="130" y="280" width="110" height="40" as="geometry" />
        </mxCell>
        <mxCell id="9YjwUA9C0ADYRmNTyqfI-10" value="班级代码" style="ellipse;whiteSpace=wrap;html=1;fontStyle=4" vertex="1" parent="1">
          <mxGeometry x="460" y="170" width="100" height="40" as="geometry" />
        </mxCell>
        <mxCell id="9YjwUA9C0ADYRmNTyqfI-11" value="班级名称" style="ellipse;whiteSpace=wrap;html=1;" vertex="1" parent="1">
          <mxGeometry x="570" y="170" width="100" height="40" as="geometry" />
        </mxCell>
        <mxCell id="9YjwUA9C0ADYRmNTyqfI-12" value="专业代码" style="ellipse;whiteSpace=wrap;html=1;fontStyle=4" vertex="1" parent="1">
          <mxGeometry y="545" width="100" height="40" as="geometry" />
        </mxCell>
        <mxCell id="9YjwUA9C0ADYRmNTyqfI-13" value="班级备注" style="ellipse;whiteSpace=wrap;html=1;" vertex="1" parent="1">
          <mxGeometry x="690" y="190" width="100" height="40" as="geometry" />
        </mxCell>
        <mxCell id="9YjwUA9C0ADYRmNTyqfI-22" value="" style="endArrow=none;html=1;rounded=0;exitX=1;exitY=0;exitDx=0;exitDy=0;entryX=0.5;entryY=1;entryDx=0;entryDy=0;" edge="1" parent="1" source="9YjwUA9C0ADYRmNTyqfI-9" target="9YjwUA9C0ADYRmNTyqfI-4">
          <mxGeometry width="50" height="50" relative="1" as="geometry">
            <mxPoint x="210" y="270" as="sourcePoint" />
            <mxPoint x="260" y="220" as="targetPoint" />
          </mxGeometry>
        </mxCell>
        <mxCell id="9YjwUA9C0ADYRmNTyqfI-23" value="" style="endArrow=none;html=1;rounded=0;exitX=0.5;exitY=0;exitDx=0;exitDy=0;entryX=0.5;entryY=1;entryDx=0;entryDy=0;" edge="1" parent="1" source="9YjwUA9C0ADYRmNTyqfI-9" target="9YjwUA9C0ADYRmNTyqfI-5">
          <mxGeometry width="50" height="50" relative="1" as="geometry">
            <mxPoint x="130" y="270" as="sourcePoint" />
            <mxPoint x="180" y="220" as="targetPoint" />
          </mxGeometry>
        </mxCell>
        <mxCell id="9YjwUA9C0ADYRmNTyqfI-24" value="" style="endArrow=none;html=1;rounded=0;entryX=0.5;entryY=1;entryDx=0;entryDy=0;exitX=0.25;exitY=0;exitDx=0;exitDy=0;" edge="1" parent="1" source="9YjwUA9C0ADYRmNTyqfI-9" target="9YjwUA9C0ADYRmNTyqfI-6">
          <mxGeometry width="50" height="50" relative="1" as="geometry">
            <mxPoint x="50" y="270" as="sourcePoint" />
            <mxPoint x="100" y="220" as="targetPoint" />
          </mxGeometry>
        </mxCell>
        <mxCell id="9YjwUA9C0ADYRmNTyqfI-25" value="" style="endArrow=none;html=1;rounded=0;exitX=1;exitY=0.5;exitDx=0;exitDy=0;entryX=0;entryY=0.5;entryDx=0;entryDy=0;" edge="1" parent="1" source="9YjwUA9C0ADYRmNTyqfI-3" target="9YjwUA9C0ADYRmNTyqfI-9">
          <mxGeometry width="50" height="50" relative="1" as="geometry">
            <mxPoint x="30" y="330" as="sourcePoint" />
            <mxPoint x="80" y="280" as="targetPoint" />
          </mxGeometry>
        </mxCell>
        <mxCell id="9YjwUA9C0ADYRmNTyqfI-26" value="" style="endArrow=none;html=1;rounded=0;exitX=0.75;exitY=0;exitDx=0;exitDy=0;" edge="1" parent="1" source="9YjwUA9C0ADYRmNTyqfI-8">
          <mxGeometry width="50" height="50" relative="1" as="geometry">
            <mxPoint x="570" y="260" as="sourcePoint" />
            <mxPoint x="620" y="210" as="targetPoint" />
          </mxGeometry>
        </mxCell>
        <mxCell id="9YjwUA9C0ADYRmNTyqfI-27" value="" style="endArrow=none;html=1;rounded=0;exitX=1;exitY=0.5;exitDx=0;exitDy=0;entryX=0.5;entryY=1;entryDx=0;entryDy=0;" edge="1" parent="1" source="9YjwUA9C0ADYRmNTyqfI-8" target="9YjwUA9C0ADYRmNTyqfI-13">
          <mxGeometry width="50" height="50" relative="1" as="geometry">
            <mxPoint x="610" y="300" as="sourcePoint" />
            <mxPoint x="660" y="250" as="targetPoint" />
          </mxGeometry>
        </mxCell>
        <mxCell id="9YjwUA9C0ADYRmNTyqfI-28" value="" style="endArrow=none;html=1;rounded=0;exitX=0.5;exitY=0;exitDx=0;exitDy=0;" edge="1" parent="1" source="9YjwUA9C0ADYRmNTyqfI-8">
          <mxGeometry width="50" height="50" relative="1" as="geometry">
            <mxPoint x="520" y="260" as="sourcePoint" />
            <mxPoint x="520" y="210" as="targetPoint" />
          </mxGeometry>
        </mxCell>
        <mxCell id="9YjwUA9C0ADYRmNTyqfI-30" value="" style="rhombus;whiteSpace=wrap;html=1;" vertex="1" parent="1">
          <mxGeometry x="360" y="270" width="86" height="50" as="geometry" />
        </mxCell>
        <mxCell id="9YjwUA9C0ADYRmNTyqfI-32" value="" style="endArrow=none;html=1;rounded=0;exitX=1;exitY=0.5;exitDx=0;exitDy=0;entryX=0;entryY=0.5;entryDx=0;entryDy=0;" edge="1" parent="1" source="9YjwUA9C0ADYRmNTyqfI-9" target="9YjwUA9C0ADYRmNTyqfI-30">
          <mxGeometry width="50" height="50" relative="1" as="geometry">
            <mxPoint x="260" y="350" as="sourcePoint" />
            <mxPoint x="310" y="300" as="targetPoint" />
            <Array as="points">
              <mxPoint x="290" y="300" />
            </Array>
          </mxGeometry>
        </mxCell>
        <mxCell id="9YjwUA9C0ADYRmNTyqfI-39" value="N" style="edgeLabel;html=1;align=center;verticalAlign=middle;resizable=0;points=[];" vertex="1" connectable="0" parent="9YjwUA9C0ADYRmNTyqfI-32">
          <mxGeometry x="-0.26" y="-4" relative="1" as="geometry">
            <mxPoint x="13" y="-4" as="offset" />
          </mxGeometry>
        </mxCell>
        <mxCell id="9YjwUA9C0ADYRmNTyqfI-33" value="" style="endArrow=none;html=1;rounded=0;exitX=1;exitY=0.5;exitDx=0;exitDy=0;entryX=0;entryY=0.5;entryDx=0;entryDy=0;" edge="1" parent="1" source="9YjwUA9C0ADYRmNTyqfI-30" target="9YjwUA9C0ADYRmNTyqfI-8">
          <mxGeometry width="50" height="50" relative="1" as="geometry">
            <mxPoint x="470" y="330" as="sourcePoint" />
            <mxPoint x="520" y="280" as="targetPoint" />
          </mxGeometry>
        </mxCell>
        <mxCell id="9YjwUA9C0ADYRmNTyqfI-34" value="1" style="edgeLabel;html=1;align=center;verticalAlign=middle;resizable=0;points=[];" vertex="1" connectable="0" parent="9YjwUA9C0ADYRmNTyqfI-33">
          <mxGeometry x="0.2072" y="-1" relative="1" as="geometry">
            <mxPoint as="offset" />
          </mxGeometry>
        </mxCell>
        <mxCell id="9YjwUA9C0ADYRmNTyqfI-40" value="&lt;span style=&quot;font-size: 12px&quot;&gt;专业表&lt;/span&gt;" style="rounded=0;whiteSpace=wrap;html=1;" vertex="1" parent="1">
          <mxGeometry x="130" y="480" width="110" height="40" as="geometry" />
        </mxCell>
        <mxCell id="9YjwUA9C0ADYRmNTyqfI-41" value="专业名称" style="ellipse;whiteSpace=wrap;html=1;" vertex="1" parent="1">
          <mxGeometry x="130" y="545" width="100" height="40" as="geometry" />
        </mxCell>
        <mxCell id="9YjwUA9C0ADYRmNTyqfI-42" value="&lt;span style=&quot;font-size: 12px&quot;&gt;系部(学院)&lt;/span&gt;" style="rounded=0;whiteSpace=wrap;html=1;" vertex="1" parent="1">
          <mxGeometry x="540" y="470" width="110" height="40" as="geometry" />
        </mxCell>
        <mxCell id="9YjwUA9C0ADYRmNTyqfI-43" value="系部名称" style="ellipse;whiteSpace=wrap;html=1;" vertex="1" parent="1">
          <mxGeometry x="700" y="540" width="100" height="40" as="geometry" />
        </mxCell>
        <mxCell id="9YjwUA9C0ADYRmNTyqfI-44" value="系主任" style="ellipse;whiteSpace=wrap;html=1;" vertex="1" parent="1">
          <mxGeometry x="570" y="545" width="100" height="40" as="geometry" />
        </mxCell>
        <mxCell id="9YjwUA9C0ADYRmNTyqfI-45" value="&lt;span style=&quot;font-size: 12px&quot;&gt;系部代码&lt;/span&gt;" style="ellipse;whiteSpace=wrap;html=1;fontStyle=4" vertex="1" parent="1">
          <mxGeometry x="710" y="460" width="80" height="40" as="geometry" />
        </mxCell>
        <mxCell id="9YjwUA9C0ADYRmNTyqfI-47" value="" style="rhombus;whiteSpace=wrap;html=1;" vertex="1" parent="1">
          <mxGeometry x="360" y="470" width="86" height="50" as="geometry" />
        </mxCell>
        <mxCell id="9YjwUA9C0ADYRmNTyqfI-48" value="" style="endArrow=none;html=1;rounded=0;exitX=1;exitY=0.5;exitDx=0;exitDy=0;entryX=0;entryY=0.5;entryDx=0;entryDy=0;" edge="1" parent="1" source="9YjwUA9C0ADYRmNTyqfI-40" target="9YjwUA9C0ADYRmNTyqfI-47">
          <mxGeometry width="50" height="50" relative="1" as="geometry">
            <mxPoint x="270" y="530" as="sourcePoint" />
            <mxPoint x="320" y="480" as="targetPoint" />
          </mxGeometry>
        </mxCell>
        <mxCell id="9YjwUA9C0ADYRmNTyqfI-49" value="" style="endArrow=none;html=1;rounded=0;exitX=1;exitY=0.5;exitDx=0;exitDy=0;entryX=0;entryY=0.5;entryDx=0;entryDy=0;" edge="1" parent="1" source="9YjwUA9C0ADYRmNTyqfI-47" target="9YjwUA9C0ADYRmNTyqfI-42">
          <mxGeometry width="50" height="50" relative="1" as="geometry">
            <mxPoint x="470" y="540" as="sourcePoint" />
            <mxPoint x="520" y="490" as="targetPoint" />
          </mxGeometry>
        </mxCell>
        <mxCell id="9YjwUA9C0ADYRmNTyqfI-50" value="N" style="text;html=1;align=center;verticalAlign=middle;resizable=0;points=[];autosize=1;strokeColor=none;fillColor=none;" vertex="1" parent="1">
          <mxGeometry x="295" y="480" width="30" height="20" as="geometry" />
        </mxCell>
        <mxCell id="9YjwUA9C0ADYRmNTyqfI-52" value="1" style="text;html=1;align=center;verticalAlign=middle;resizable=0;points=[];autosize=1;strokeColor=none;fillColor=none;" vertex="1" parent="1">
          <mxGeometry x="485" y="470" width="20" height="20" as="geometry" />
        </mxCell>
        <mxCell id="9YjwUA9C0ADYRmNTyqfI-53" value="" style="rhombus;whiteSpace=wrap;html=1;" vertex="1" parent="1">
          <mxGeometry x="360" y="370" width="86" height="50" as="geometry" />
        </mxCell>
        <mxCell id="9YjwUA9C0ADYRmNTyqfI-54" value="" style="endArrow=none;html=1;rounded=0;entryX=0.5;entryY=1;entryDx=0;entryDy=0;exitX=1;exitY=0.5;exitDx=0;exitDy=0;startArrow=none;" edge="1" parent="1" source="9YjwUA9C0ADYRmNTyqfI-57" target="9YjwUA9C0ADYRmNTyqfI-8">
          <mxGeometry width="50" height="50" relative="1" as="geometry">
            <mxPoint x="440" y="400" as="sourcePoint" />
            <mxPoint x="440" y="380" as="targetPoint" />
          </mxGeometry>
        </mxCell>
        <mxCell id="9YjwUA9C0ADYRmNTyqfI-55" value="" style="endArrow=none;html=1;rounded=0;exitX=0.5;exitY=0;exitDx=0;exitDy=0;entryX=0;entryY=0.5;entryDx=0;entryDy=0;" edge="1" parent="1" source="9YjwUA9C0ADYRmNTyqfI-40" target="9YjwUA9C0ADYRmNTyqfI-53">
          <mxGeometry width="50" height="50" relative="1" as="geometry">
            <mxPoint x="240" y="460" as="sourcePoint" />
            <mxPoint x="290" y="410" as="targetPoint" />
          </mxGeometry>
        </mxCell>
        <mxCell id="9YjwUA9C0ADYRmNTyqfI-56" value="1" style="text;html=1;align=center;verticalAlign=middle;resizable=0;points=[];autosize=1;strokeColor=none;fillColor=none;" vertex="1" parent="1">
          <mxGeometry x="260" y="410" width="20" height="20" as="geometry" />
        </mxCell>
        <mxCell id="9YjwUA9C0ADYRmNTyqfI-57" value="N" style="text;html=1;align=center;verticalAlign=middle;resizable=0;points=[];autosize=1;strokeColor=none;fillColor=none;" vertex="1" parent="1">
          <mxGeometry x="480" y="340" width="30" height="20" as="geometry" />
        </mxCell>
        <mxCell id="9YjwUA9C0ADYRmNTyqfI-58" value="" style="endArrow=none;html=1;rounded=0;entryX=0.5;entryY=1;entryDx=0;entryDy=0;exitX=1;exitY=0.5;exitDx=0;exitDy=0;" edge="1" parent="1" source="9YjwUA9C0ADYRmNTyqfI-53" target="9YjwUA9C0ADYRmNTyqfI-57">
          <mxGeometry width="50" height="50" relative="1" as="geometry">
            <mxPoint x="446" y="395" as="sourcePoint" />
            <mxPoint x="595" y="310" as="targetPoint" />
          </mxGeometry>
        </mxCell>
        <mxCell id="9YjwUA9C0ADYRmNTyqfI-59" value="" style="endArrow=none;html=1;rounded=0;exitX=0.5;exitY=0;exitDx=0;exitDy=0;entryX=0;entryY=0.5;entryDx=0;entryDy=0;" edge="1" parent="1" source="9YjwUA9C0ADYRmNTyqfI-12" target="9YjwUA9C0ADYRmNTyqfI-40">
          <mxGeometry width="50" height="50" relative="1" as="geometry">
            <mxPoint x="60" y="550" as="sourcePoint" />
            <mxPoint x="110" y="500" as="targetPoint" />
          </mxGeometry>
        </mxCell>
        <mxCell id="9YjwUA9C0ADYRmNTyqfI-61" value="" style="endArrow=none;html=1;rounded=0;exitX=0.5;exitY=0;exitDx=0;exitDy=0;entryX=0.5;entryY=1;entryDx=0;entryDy=0;" edge="1" parent="1" source="9YjwUA9C0ADYRmNTyqfI-41" target="9YjwUA9C0ADYRmNTyqfI-40">
          <mxGeometry width="50" height="50" relative="1" as="geometry">
            <mxPoint x="240" y="570" as="sourcePoint" />
            <mxPoint x="290" y="520" as="targetPoint" />
          </mxGeometry>
        </mxCell>
        <mxCell id="9YjwUA9C0ADYRmNTyqfI-62" value="" style="endArrow=none;html=1;rounded=0;exitX=0.5;exitY=0;exitDx=0;exitDy=0;entryX=0.5;entryY=1;entryDx=0;entryDy=0;" edge="1" parent="1" source="9YjwUA9C0ADYRmNTyqfI-44" target="9YjwUA9C0ADYRmNTyqfI-42">
          <mxGeometry width="50" height="50" relative="1" as="geometry">
            <mxPoint x="500" y="570" as="sourcePoint" />
            <mxPoint x="550" y="520" as="targetPoint" />
          </mxGeometry>
        </mxCell>
        <mxCell id="9YjwUA9C0ADYRmNTyqfI-63" value="" style="endArrow=none;html=1;rounded=0;exitX=1;exitY=0.5;exitDx=0;exitDy=0;entryX=0;entryY=0.5;entryDx=0;entryDy=0;" edge="1" parent="1" source="9YjwUA9C0ADYRmNTyqfI-42" target="9YjwUA9C0ADYRmNTyqfI-45">
          <mxGeometry width="50" height="50" relative="1" as="geometry">
            <mxPoint x="660" y="490" as="sourcePoint" />
            <mxPoint x="710" y="440" as="targetPoint" />
          </mxGeometry>
        </mxCell>
        <mxCell id="9YjwUA9C0ADYRmNTyqfI-64" value="" style="endArrow=none;html=1;rounded=0;exitX=1;exitY=1;exitDx=0;exitDy=0;entryX=0;entryY=0;entryDx=0;entryDy=0;" edge="1" parent="1" source="9YjwUA9C0ADYRmNTyqfI-42" target="9YjwUA9C0ADYRmNTyqfI-43">
          <mxGeometry width="50" height="50" relative="1" as="geometry">
            <mxPoint x="660" y="550" as="sourcePoint" />
            <mxPoint x="710" y="500" as="targetPoint" />
          </mxGeometry>
        </mxCell>
        <mxCell id="9YjwUA9C0ADYRmNTyqfI-66" value="姓名" style="ellipse;whiteSpace=wrap;html=1;" vertex="1" parent="1">
          <mxGeometry x="-10" y="200" width="100" height="40" as="geometry" />
        </mxCell>
        <mxCell id="9YjwUA9C0ADYRmNTyqfI-67" value="" style="endArrow=none;html=1;rounded=0;entryX=0.5;entryY=1;entryDx=0;entryDy=0;" edge="1" parent="1" target="9YjwUA9C0ADYRmNTyqfI-66">
          <mxGeometry width="50" height="50" relative="1" as="geometry">
            <mxPoint x="130" y="280" as="sourcePoint" />
            <mxPoint x="140" y="240" as="targetPoint" />
          </mxGeometry>
        </mxCell>
      </root>
    </mxGraphModel>
  </diagram>
</mxfile>
